solid exported
	facet normal 0 1 0
		outer loop
			vertex 0.11646100133657455 0.0019220010144636035 -0.0030499999411404133
			vertex 0.018079999834299088 0.0019220010144636035 0.009949999861419201
			vertex 0.11646100133657455 0.0019220010144636035 0.009949999861419201
		endloop
	endfacet
	facet normal 0 1 0
		outer loop
			vertex 0.11646100133657455 0.0019220010144636035 -0.0030499999411404133
			vertex 0.018079999834299088 0.0019220010144636035 -0.0030499999411404133
			vertex 0.018079999834299088 0.0019220010144636035 0.009949999861419201
		endloop
	endfacet
	facet normal 1 0 0
		outer loop
			vertex 0.11646100133657455 -0.13554200530052185 0.009949999861419201
			vertex 0.11646100133657455 -0.13554200530052185 -0.0030499999411404133
			vertex 0.11646100133657455 0.0019220010144636035 -0.0030499999411404133
		endloop
	endfacet
	facet normal 1 0 0
		outer loop
			vertex 0.11646100133657455 -0.13554200530052185 0.009949999861419201
			vertex 0.11646100133657455 0.0019220010144636035 -0.0030499999411404133
			vertex 0.11646100133657455 0.0019220010144636035 0.009949999861419201
		endloop
	endfacet
	facet normal 0 -1 0
		outer loop
			vertex 0.11646100133657455 -0.13554200530052185 -0.0030499999411404133
			vertex 0.11646100133657455 -0.13554200530052185 0.009949999861419201
			vertex 0.018079999834299088 -0.13554200530052185 0.009949999861419201
		endloop
	endfacet
	facet normal 0 -1 0
		outer loop
			vertex 0.11646100133657455 -0.13554200530052185 -0.0030499999411404133
			vertex 0.018079999834299088 -0.13554200530052185 0.009949999861419201
			vertex 0.018079999834299088 -0.13554200530052185 -0.0030499999411404133
		endloop
	endfacet
	facet normal -1 0 0
		outer loop
			vertex 0.018079999834299088 -0.013279019854962826 0.0023974014911800623
			vertex 0.018079999834299088 0.0019220010144636035 0.009949999861419201
			vertex 0.018079999834299088 0.0019220010144636035 -0.0030499999411404133
		endloop
	endfacet
	facet normal -1 0 0
		outer loop
			vertex 0.018079999834299088 -0.013279019854962826 0.006397401448339224
			vertex 0.018079999834299088 0.0019220010144636035 0.009949999861419201
			vertex 0.018079999834299088 -0.013279019854962826 0.0023974014911800623
		endloop
	endfacet
	facet normal -1 0 0
		outer loop
			vertex 0.018079999834299088 -0.024279018864035606 0.0023974014911800623
			vertex 0.018079999834299088 -0.013279019854962826 0.0023974014911800623
			vertex 0.018079999834299088 0.0019220010144636035 -0.0030499999411404133
		endloop
	endfacet
	facet normal -1 0 0
		outer loop
			vertex 0.018079999834299088 -0.024279018864035606 0.006397401448339224
			vertex 0.018079999834299088 0.0019220010144636035 0.009949999861419201
			vertex 0.018079999834299088 -0.013279019854962826 0.006397401448339224
		endloop
	endfacet
	facet normal -1 0 0
		outer loop
			vertex 0.018079999834299088 -0.13554200530052185 -0.0030499999411404133
			vertex 0.018079999834299088 -0.024279018864035606 0.0023974014911800623
			vertex 0.018079999834299088 0.0019220010144636035 -0.0030499999411404133
		endloop
	endfacet
	facet normal -1 0 0
		outer loop
			vertex 0.018079999834299088 -0.13554200530052185 0.009949999861419201
			vertex 0.018079999834299088 -0.024279018864035606 0.006397401448339224
			vertex 0.018079999834299088 -0.024279018864035606 0.0023974014911800623
		endloop
	endfacet
	facet normal -1 0 0
		outer loop
			vertex 0.018079999834299088 -0.13554200530052185 0.009949999861419201
			vertex 0.018079999834299088 -0.024279018864035606 0.0023974014911800623
			vertex 0.018079999834299088 -0.13554200530052185 -0.0030499999411404133
		endloop
	endfacet
	facet normal -1 0 0
		outer loop
			vertex 0.018079999834299088 -0.13554200530052185 0.009949999861419201
			vertex 0.018079999834299088 0.0019220010144636035 0.009949999861419201
			vertex 0.018079999834299088 -0.024279018864035606 0.006397401448339224
		endloop
	endfacet
	facet normal 0 0 -1
		outer loop
			vertex 0.11646100133657455 -0.13554200530052185 -0.0030499999411404133
			vertex 0.018079999834299088 0.0019220010144636035 -0.0030499999411404133
			vertex 0.11646100133657455 0.0019220010144636035 -0.0030499999411404133
		endloop
	endfacet
	facet normal 0 0 -1
		outer loop
			vertex 0.11646100133657455 -0.13554200530052185 -0.0030499999411404133
			vertex 0.018079999834299088 -0.13554200530052185 -0.0030499999411404133
			vertex 0.018079999834299088 0.0019220010144636035 -0.0030499999411404133
		endloop
	endfacet
	facet normal -1 0 0
		outer loop
			vertex 0.10646100342273712 -0.008077998645603657 0.009949999861419201
			vertex 0.10646100342273712 -0.12554199993610382 -0.00004999999873689376
			vertex 0.10646100342273712 -0.12554199993610382 0.009949999861419201
		endloop
	endfacet
	facet normal -1 0 0
		outer loop
			vertex 0.10646100342273712 -0.008077998645603657 0.009949999861419201
			vertex 0.10646100342273712 -0.008077998645603657 -0.00004999999873689376
			vertex 0.10646100342273712 -0.12554199993610382 -0.00004999999873689376
		endloop
	endfacet
	facet normal 0 -1 0
		outer loop
			vertex 0.10646100342273712 -0.008077998645603657 0.009949999861419201
			vertex 0.02807999961078167 -0.008077998645603657 0.009949999861419201
			vertex 0.02807999961078167 -0.008077998645603657 -0.00004999999873689376
		endloop
	endfacet
	facet normal 0 -1 0
		outer loop
			vertex 0.10646100342273712 -0.008077998645603657 0.009949999861419201
			vertex 0.02807999961078167 -0.008077998645603657 -0.00004999999873689376
			vertex 0.10646100342273712 -0.008077998645603657 -0.00004999999873689376
		endloop
	endfacet
	facet normal 1 0 0
		outer loop
			vertex 0.02807999961078167 -0.024279018864035606 0.006397401448339224
			vertex 0.02807999961078167 -0.12554199993610382 0.009949999861419201
			vertex 0.02807999961078167 -0.12554199993610382 -0.00004999999873689376
		endloop
	endfacet
	facet normal 1 0 0
		outer loop
			vertex 0.02807999961078167 -0.024279018864035606 0.006397401448339224
			vertex 0.02807999961078167 -0.12554199993610382 -0.00004999999873689376
			vertex 0.02807999961078167 -0.024279018864035606 0.0023974014911800623
		endloop
	endfacet
	facet normal 1 0 0
		outer loop
			vertex 0.02807999961078167 -0.008077998645603657 -0.00004999999873689376
			vertex 0.02807999961078167 -0.013279019854962826 0.0023974014911800623
			vertex 0.02807999961078167 -0.024279018864035606 0.0023974014911800623
		endloop
	endfacet
	facet normal 1 0 0
		outer loop
			vertex 0.02807999961078167 -0.008077998645603657 -0.00004999999873689376
			vertex 0.02807999961078167 -0.024279018864035606 0.0023974014911800623
			vertex 0.02807999961078167 -0.12554199993610382 -0.00004999999873689376
		endloop
	endfacet
	facet normal 1 0 0
		outer loop
			vertex 0.02807999961078167 -0.013279019854962826 0.006397401448339224
			vertex 0.02807999961078167 -0.013279019854962826 0.0023974014911800623
			vertex 0.02807999961078167 -0.008077998645603657 -0.00004999999873689376
		endloop
	endfacet
	facet normal 1 0 0
		outer loop
			vertex 0.02807999961078167 -0.008077998645603657 0.009949999861419201
			vertex 0.02807999961078167 -0.024279018864035606 0.006397401448339224
			vertex 0.02807999961078167 -0.013279019854962826 0.006397401448339224
		endloop
	endfacet
	facet normal 1 0 0
		outer loop
			vertex 0.02807999961078167 -0.008077998645603657 0.009949999861419201
			vertex 0.02807999961078167 -0.013279019854962826 0.006397401448339224
			vertex 0.02807999961078167 -0.008077998645603657 -0.00004999999873689376
		endloop
	endfacet
	facet normal 1 0 0
		outer loop
			vertex 0.02807999961078167 -0.008077998645603657 0.009949999861419201
			vertex 0.02807999961078167 -0.12554199993610382 0.009949999861419201
			vertex 0.02807999961078167 -0.024279018864035606 0.006397401448339224
		endloop
	endfacet
	facet normal 0 1 0
		outer loop
			vertex 0.10646100342273712 -0.12554199993610382 0.009949999861419201
			vertex 0.10646100342273712 -0.12554199993610382 -0.00004999999873689376
			vertex 0.02807999961078167 -0.12554199993610382 -0.00004999999873689376
		endloop
	endfacet
	facet normal 0 1 0
		outer loop
			vertex 0.10646100342273712 -0.12554199993610382 0.009949999861419201
			vertex 0.02807999961078167 -0.12554199993610382 -0.00004999999873689376
			vertex 0.02807999961078167 -0.12554199993610382 0.009949999861419201
		endloop
	endfacet
	facet normal 0 0 1
		outer loop
			vertex 0.10646100342273712 -0.008077998645603657 0.009949999861419201
			vertex 0.11646100133657455 0.0019220010144636035 0.009949999861419201
			vertex 0.018079999834299088 0.0019220010144636035 0.009949999861419201
		endloop
	endfacet
	facet normal 0 0 1
		outer loop
			vertex 0.10646100342273712 -0.008077998645603657 0.009949999861419201
			vertex 0.018079999834299088 0.0019220010144636035 0.009949999861419201
			vertex 0.02807999961078167 -0.008077998645603657 0.009949999861419201
		endloop
	endfacet
	facet normal 0 0 1
		outer loop
			vertex 0.02807999961078167 -0.12554199993610382 0.009949999861419201
			vertex 0.018079999834299088 0.0019220010144636035 0.009949999861419201
			vertex 0.018079999834299088 -0.13554200530052185 0.009949999861419201
		endloop
	endfacet
	facet normal 0 0 1
		outer loop
			vertex 0.02807999961078167 -0.12554199993610382 0.009949999861419201
			vertex 0.02807999961078167 -0.008077998645603657 0.009949999861419201
			vertex 0.018079999834299088 0.0019220010144636035 0.009949999861419201
		endloop
	endfacet
	facet normal 0 0 1
		outer loop
			vertex 0.11646100133657455 -0.13554200530052185 0.009949999861419201
			vertex 0.10646100342273712 -0.12554199993610382 0.009949999861419201
			vertex 0.02807999961078167 -0.12554199993610382 0.009949999861419201
		endloop
	endfacet
	facet normal 0 0 1
		outer loop
			vertex 0.11646100133657455 -0.13554200530052185 0.009949999861419201
			vertex 0.10646100342273712 -0.008077998645603657 0.009949999861419201
			vertex 0.10646100342273712 -0.12554199993610382 0.009949999861419201
		endloop
	endfacet
	facet normal 0 0 1
		outer loop
			vertex 0.11646100133657455 -0.13554200530052185 0.009949999861419201
			vertex 0.02807999961078167 -0.12554199993610382 0.009949999861419201
			vertex 0.018079999834299088 -0.13554200530052185 0.009949999861419201
		endloop
	endfacet
	facet normal 0 0 1
		outer loop
			vertex 0.11646100133657455 -0.13554200530052185 0.009949999861419201
			vertex 0.11646100133657455 0.0019220010144636035 0.009949999861419201
			vertex 0.10646100342273712 -0.008077998645603657 0.009949999861419201
		endloop
	endfacet
	facet normal 0 0 1
		outer loop
			vertex 0.10646100342273712 -0.12554199993610382 -0.00004999999873689376
			vertex 0.02807999961078167 -0.008077998645603657 -0.00004999999873689376
			vertex 0.02807999961078167 -0.12554199993610382 -0.00004999999873689376
		endloop
	endfacet
	facet normal 0 0 1
		outer loop
			vertex 0.10646100342273712 -0.12554199993610382 -0.00004999999873689376
			vertex 0.10646100342273712 -0.008077998645603657 -0.00004999999873689376
			vertex 0.02807999961078167 -0.008077998645603657 -0.00004999999873689376
		endloop
	endfacet
	facet normal 0 0 -1
		outer loop
			vertex 0.02807999961078167 -0.013279019854962826 0.006397401448339224
			vertex 0.02807999961078167 -0.024279018864035606 0.006397401448339224
			vertex 0.018079999834299088 -0.024279018864035606 0.006397401448339224
		endloop
	endfacet
	facet normal 0 0 -1
		outer loop
			vertex 0.02807999961078167 -0.013279019854962826 0.006397401448339224
			vertex 0.018079999834299088 -0.024279018864035606 0.006397401448339224
			vertex 0.018079999834299088 -0.013279019854962826 0.006397401448339224
		endloop
	endfacet
	facet normal 0 -1 0
		outer loop
			vertex 0.02807999961078167 -0.013279019854962826 0.006397401448339224
			vertex 0.018079999834299088 -0.013279019854962826 0.0023974014911800623
			vertex 0.02807999961078167 -0.013279019854962826 0.0023974014911800623
		endloop
	endfacet
	facet normal 0 -1 0
		outer loop
			vertex 0.02807999961078167 -0.013279019854962826 0.006397401448339224
			vertex 0.018079999834299088 -0.013279019854962826 0.006397401448339224
			vertex 0.018079999834299088 -0.013279019854962826 0.0023974014911800623
		endloop
	endfacet
	facet normal 0 0 1
		outer loop
			vertex 0.02807999961078167 -0.013279019854962826 0.0023974014911800623
			vertex 0.018079999834299088 -0.024279018864035606 0.0023974014911800623
			vertex 0.02807999961078167 -0.024279018864035606 0.0023974014911800623
		endloop
	endfacet
	facet normal 0 0 1
		outer loop
			vertex 0.02807999961078167 -0.013279019854962826 0.0023974014911800623
			vertex 0.018079999834299088 -0.013279019854962826 0.0023974014911800623
			vertex 0.018079999834299088 -0.024279018864035606 0.0023974014911800623
		endloop
	endfacet
	facet normal 0 1 0
		outer loop
			vertex 0.02807999961078167 -0.024279018864035606 0.006397401448339224
			vertex 0.02807999961078167 -0.024279018864035606 0.0023974014911800623
			vertex 0.018079999834299088 -0.024279018864035606 0.0023974014911800623
		endloop
	endfacet
	facet normal 0 1 0
		outer loop
			vertex 0.02807999961078167 -0.024279018864035606 0.006397401448339224
			vertex 0.018079999834299088 -0.024279018864035606 0.0023974014911800623
			vertex 0.018079999834299088 -0.024279018864035606 0.006397401448339224
		endloop
	endfacet
endsolid exported
