ISO-10303-21;
HEADER;
/* Generated by software containing ST-Developer
 * from STEP Tools, Inc. (www.steptools.com) 
 */
/* OPTION: using custom renumber hook */

FILE_DESCRIPTION(
/* description */ ('STEP AP242 Edition 2',
'CAx-IF Rec.Pracs.---Representation and Presentation of Product Manufa
cturing Information (PMI)---4.0---2014-10-13',
'CAx-IF Rec.Pracs.---3D Tessellated Geometry---0.4---2014-09-14','2;1',
'CAx-IF Rec.Pracs.---User Defined Attributes---1.5---2016-08-15'),
/* implementation_level */ '2;1');

FILE_NAME(
/* name */ 'Part Studio 1',
/* time_stamp */ '2026-09-26T06:59:22Z',
/* author */ (''),
/* organization */ (''),
/* preprocessor_version */ 'ST-DEVELOPER v20',
/* originating_system */ 'ONSHAPE BY PTC INC, 1.221',
/* authorisation */ '  ');

FILE_SCHEMA (('AP242_MANAGED_MODEL_BASED_3D_ENGINEERING_MIM_LF { 1 0 10303 442 3 1 4 }'));
ENDSEC;

DATA;
#10=SHAPE_REPRESENTATION_RELATIONSHIP('','',#293,#11);
#11=ADVANCED_BREP_SHAPE_REPRESENTATION('',(#291),#455);
#12=ORIENTED_EDGE('',*,*,#84,.T.);
#13=ORIENTED_EDGE('',*,*,#85,.T.);
#14=ORIENTED_EDGE('',*,*,#86,.F.);
#15=ORIENTED_EDGE('',*,*,#87,.F.);
#16=ORIENTED_EDGE('',*,*,#86,.T.);
#17=ORIENTED_EDGE('',*,*,#88,.T.);
#18=ORIENTED_EDGE('',*,*,#89,.F.);
#19=ORIENTED_EDGE('',*,*,#90,.F.);
#20=ORIENTED_EDGE('',*,*,#89,.T.);
#21=ORIENTED_EDGE('',*,*,#91,.F.);
#22=ORIENTED_EDGE('',*,*,#92,.F.);
#23=ORIENTED_EDGE('',*,*,#93,.T.);
#24=ORIENTED_EDGE('',*,*,#94,.F.);
#25=ORIENTED_EDGE('',*,*,#95,.F.);
#26=ORIENTED_EDGE('',*,*,#96,.T.);
#27=ORIENTED_EDGE('',*,*,#97,.T.);
#28=ORIENTED_EDGE('',*,*,#92,.T.);
#29=ORIENTED_EDGE('',*,*,#98,.F.);
#30=ORIENTED_EDGE('',*,*,#84,.F.);
#31=ORIENTED_EDGE('',*,*,#99,.T.);
#32=ORIENTED_EDGE('',*,*,#87,.T.);
#33=ORIENTED_EDGE('',*,*,#90,.T.);
#34=ORIENTED_EDGE('',*,*,#93,.F.);
#35=ORIENTED_EDGE('',*,*,#99,.F.);
#36=ORIENTED_EDGE('',*,*,#100,.T.);
#37=ORIENTED_EDGE('',*,*,#101,.F.);
#38=ORIENTED_EDGE('',*,*,#102,.F.);
#39=ORIENTED_EDGE('',*,*,#103,.T.);
#40=ORIENTED_EDGE('',*,*,#104,.T.);
#41=ORIENTED_EDGE('',*,*,#103,.F.);
#42=ORIENTED_EDGE('',*,*,#105,.F.);
#43=ORIENTED_EDGE('',*,*,#106,.T.);
#44=ORIENTED_EDGE('',*,*,#107,.F.);
#45=ORIENTED_EDGE('',*,*,#108,.T.);
#46=ORIENTED_EDGE('',*,*,#109,.T.);
#47=ORIENTED_EDGE('',*,*,#110,.F.);
#48=ORIENTED_EDGE('',*,*,#111,.F.);
#49=ORIENTED_EDGE('',*,*,#106,.F.);
#50=ORIENTED_EDGE('',*,*,#112,.T.);
#51=ORIENTED_EDGE('',*,*,#113,.T.);
#52=ORIENTED_EDGE('',*,*,#114,.F.);
#53=ORIENTED_EDGE('',*,*,#113,.F.);
#54=ORIENTED_EDGE('',*,*,#115,.T.);
#55=ORIENTED_EDGE('',*,*,#101,.T.);
#56=ORIENTED_EDGE('',*,*,#102,.T.);
#57=ORIENTED_EDGE('',*,*,#115,.F.);
#58=ORIENTED_EDGE('',*,*,#112,.F.);
#59=ORIENTED_EDGE('',*,*,#105,.T.);
#60=ORIENTED_EDGE('',*,*,#85,.F.);
#61=ORIENTED_EDGE('',*,*,#98,.T.);
#62=ORIENTED_EDGE('',*,*,#91,.T.);
#63=ORIENTED_EDGE('',*,*,#88,.F.);
#64=ORIENTED_EDGE('',*,*,#100,.F.);
#65=ORIENTED_EDGE('',*,*,#104,.F.);
#66=ORIENTED_EDGE('',*,*,#111,.T.);
#67=ORIENTED_EDGE('',*,*,#114,.T.);
#68=ORIENTED_EDGE('',*,*,#94,.T.);
#69=ORIENTED_EDGE('',*,*,#116,.T.);
#70=ORIENTED_EDGE('',*,*,#107,.T.);
#71=ORIENTED_EDGE('',*,*,#117,.F.);
#72=ORIENTED_EDGE('',*,*,#118,.T.);
#73=ORIENTED_EDGE('',*,*,#108,.F.);
#74=ORIENTED_EDGE('',*,*,#116,.F.);
#75=ORIENTED_EDGE('',*,*,#97,.F.);
#76=ORIENTED_EDGE('',*,*,#119,.T.);
#77=ORIENTED_EDGE('',*,*,#109,.F.);
#78=ORIENTED_EDGE('',*,*,#118,.F.);
#79=ORIENTED_EDGE('',*,*,#96,.F.);
#80=ORIENTED_EDGE('',*,*,#95,.T.);
#81=ORIENTED_EDGE('',*,*,#117,.T.);
#82=ORIENTED_EDGE('',*,*,#110,.T.);
#83=ORIENTED_EDGE('',*,*,#119,.F.);
#84=EDGE_CURVE('',#120,#121,#144,.T.);
#85=EDGE_CURVE('',#121,#122,#145,.T.);
#86=EDGE_CURVE('',#123,#122,#146,.T.);
#87=EDGE_CURVE('',#120,#123,#147,.T.);
#88=EDGE_CURVE('',#122,#124,#148,.T.);
#89=EDGE_CURVE('',#125,#124,#149,.T.);
#90=EDGE_CURVE('',#123,#125,#150,.T.);
#91=EDGE_CURVE('',#126,#124,#151,.T.);
#92=EDGE_CURVE('',#127,#126,#152,.T.);
#93=EDGE_CURVE('',#127,#125,#153,.T.);
#94=EDGE_CURVE('',#128,#129,#154,.T.);
#95=EDGE_CURVE('',#130,#128,#155,.T.);
#96=EDGE_CURVE('',#130,#131,#156,.T.);
#97=EDGE_CURVE('',#131,#129,#157,.T.);
#98=EDGE_CURVE('',#121,#126,#158,.T.);
#99=EDGE_CURVE('',#120,#127,#159,.T.);
#100=EDGE_CURVE('',#132,#133,#160,.T.);
#101=EDGE_CURVE('',#134,#133,#161,.T.);
#102=EDGE_CURVE('',#135,#134,#162,.T.);
#103=EDGE_CURVE('',#135,#132,#163,.T.);
#104=EDGE_CURVE('',#136,#132,#164,.T.);
#105=EDGE_CURVE('',#137,#135,#165,.T.);
#106=EDGE_CURVE('',#137,#136,#166,.T.);
#107=EDGE_CURVE('',#138,#139,#167,.T.);
#108=EDGE_CURVE('',#138,#140,#168,.T.);
#109=EDGE_CURVE('',#140,#141,#169,.T.);
#110=EDGE_CURVE('',#139,#141,#170,.T.);
#111=EDGE_CURVE('',#136,#142,#171,.T.);
#112=EDGE_CURVE('',#137,#143,#172,.T.);
#113=EDGE_CURVE('',#143,#142,#173,.T.);
#114=EDGE_CURVE('',#142,#133,#174,.T.);
#115=EDGE_CURVE('',#143,#134,#175,.T.);
#116=EDGE_CURVE('',#129,#138,#176,.T.);
#117=EDGE_CURVE('',#128,#139,#177,.T.);
#118=EDGE_CURVE('',#131,#140,#178,.T.);
#119=EDGE_CURVE('',#130,#141,#179,.T.);
#120=VERTEX_POINT('',#381);
#121=VERTEX_POINT('',#382);
#122=VERTEX_POINT('',#384);
#123=VERTEX_POINT('',#386);
#124=VERTEX_POINT('',#390);
#125=VERTEX_POINT('',#392);
#126=VERTEX_POINT('',#396);
#127=VERTEX_POINT('',#398);
#128=VERTEX_POINT('',#402);
#129=VERTEX_POINT('',#403);
#130=VERTEX_POINT('',#405);
#131=VERTEX_POINT('',#407);
#132=VERTEX_POINT('',#414);
#133=VERTEX_POINT('',#415);
#134=VERTEX_POINT('',#417);
#135=VERTEX_POINT('',#419);
#136=VERTEX_POINT('',#423);
#137=VERTEX_POINT('',#425);
#138=VERTEX_POINT('',#429);
#139=VERTEX_POINT('',#430);
#140=VERTEX_POINT('',#432);
#141=VERTEX_POINT('',#434);
#142=VERTEX_POINT('',#437);
#143=VERTEX_POINT('',#439);
#144=LINE('',#380,#180);
#145=LINE('',#383,#181);
#146=LINE('',#385,#182);
#147=LINE('',#387,#183);
#148=LINE('',#389,#184);
#149=LINE('',#391,#185);
#150=LINE('',#393,#186);
#151=LINE('',#395,#187);
#152=LINE('',#397,#188);
#153=LINE('',#399,#189);
#154=LINE('',#401,#190);
#155=LINE('',#404,#191);
#156=LINE('',#406,#192);
#157=LINE('',#408,#193);
#158=LINE('',#409,#194);
#159=LINE('',#410,#195);
#160=LINE('',#413,#196);
#161=LINE('',#416,#197);
#162=LINE('',#418,#198);
#163=LINE('',#420,#199);
#164=LINE('',#422,#200);
#165=LINE('',#424,#201);
#166=LINE('',#426,#202);
#167=LINE('',#428,#203);
#168=LINE('',#431,#204);
#169=LINE('',#433,#205);
#170=LINE('',#435,#206);
#171=LINE('',#436,#207);
#172=LINE('',#438,#208);
#173=LINE('',#440,#209);
#174=LINE('',#442,#210);
#175=LINE('',#443,#211);
#176=LINE('',#447,#212);
#177=LINE('',#448,#213);
#178=LINE('',#450,#214);
#179=LINE('',#452,#215);
#180=VECTOR('',#314,1.);
#181=VECTOR('',#315,1.);
#182=VECTOR('',#316,1.);
#183=VECTOR('',#317,1.);
#184=VECTOR('',#320,1.);
#185=VECTOR('',#321,1.);
#186=VECTOR('',#322,1.);
#187=VECTOR('',#325,1.);
#188=VECTOR('',#326,1.);
#189=VECTOR('',#327,1.);
#190=VECTOR('',#330,1.);
#191=VECTOR('',#331,1.);
#192=VECTOR('',#332,1.);
#193=VECTOR('',#333,1.);
#194=VECTOR('',#334,1.);
#195=VECTOR('',#335,1.);
#196=VECTOR('',#340,1.);
#197=VECTOR('',#341,1.);
#198=VECTOR('',#342,1.);
#199=VECTOR('',#343,1.);
#200=VECTOR('',#346,1.);
#201=VECTOR('',#347,1.);
#202=VECTOR('',#348,1.);
#203=VECTOR('',#351,1.);
#204=VECTOR('',#352,1.);
#205=VECTOR('',#353,1.);
#206=VECTOR('',#354,1.);
#207=VECTOR('',#355,1.);
#208=VECTOR('',#356,1.);
#209=VECTOR('',#357,1.);
#210=VECTOR('',#360,1.);
#211=VECTOR('',#361,1.);
#212=VECTOR('',#368,1.);
#213=VECTOR('',#369,1.);
#214=VECTOR('',#372,1.);
#215=VECTOR('',#375,1.);
#216=EDGE_LOOP('',(#12,#13,#14,#15));
#217=EDGE_LOOP('',(#16,#17,#18,#19));
#218=EDGE_LOOP('',(#20,#21,#22,#23));
#219=EDGE_LOOP('',(#24,#25,#26,#27));
#220=EDGE_LOOP('',(#28,#29,#30,#31));
#221=EDGE_LOOP('',(#32,#33,#34,#35));
#222=EDGE_LOOP('',(#36,#37,#38,#39));
#223=EDGE_LOOP('',(#40,#41,#42,#43));
#224=EDGE_LOOP('',(#44,#45,#46,#47));
#225=EDGE_LOOP('',(#48,#49,#50,#51));
#226=EDGE_LOOP('',(#52,#53,#54,#55));
#227=EDGE_LOOP('',(#56,#57,#58,#59));
#228=EDGE_LOOP('',(#60,#61,#62,#63));
#229=EDGE_LOOP('',(#64,#65,#66,#67));
#230=EDGE_LOOP('',(#68,#69,#70,#71));
#231=EDGE_LOOP('',(#72,#73,#74,#75));
#232=EDGE_LOOP('',(#76,#77,#78,#79));
#233=EDGE_LOOP('',(#80,#81,#82,#83));
#234=FACE_BOUND('',#216,.T.);
#235=FACE_BOUND('',#217,.T.);
#236=FACE_BOUND('',#218,.T.);
#237=FACE_BOUND('',#219,.T.);
#238=FACE_BOUND('',#220,.T.);
#239=FACE_BOUND('',#221,.T.);
#240=FACE_BOUND('',#222,.T.);
#241=FACE_BOUND('',#223,.T.);
#242=FACE_BOUND('',#224,.T.);
#243=FACE_BOUND('',#225,.T.);
#244=FACE_BOUND('',#226,.T.);
#245=FACE_BOUND('',#227,.T.);
#246=FACE_BOUND('',#228,.T.);
#247=FACE_BOUND('',#229,.T.);
#248=FACE_BOUND('',#230,.T.);
#249=FACE_BOUND('',#231,.T.);
#250=FACE_BOUND('',#232,.T.);
#251=FACE_BOUND('',#233,.T.);
#252=PLANE('',#295);
#253=PLANE('',#296);
#254=PLANE('',#297);
#255=PLANE('',#298);
#256=PLANE('',#299);
#257=PLANE('',#300);
#258=PLANE('',#301);
#259=PLANE('',#302);
#260=PLANE('',#303);
#261=PLANE('',#304);
#262=PLANE('',#305);
#263=PLANE('',#306);
#264=PLANE('',#307);
#265=PLANE('',#308);
#266=PLANE('',#309);
#267=ADVANCED_FACE('',(#234),#252,.F.);
#268=ADVANCED_FACE('',(#235),#253,.F.);
#269=ADVANCED_FACE('',(#236),#254,.T.);
#270=ADVANCED_FACE('',(#237,#238),#255,.T.);
#271=ADVANCED_FACE('',(#239),#256,.T.);
#272=ADVANCED_FACE('',(#240),#257,.F.);
#273=ADVANCED_FACE('',(#241),#258,.F.);
#274=ADVANCED_FACE('',(#242,#243),#259,.T.);
#275=ADVANCED_FACE('',(#244),#260,.T.);
#276=ADVANCED_FACE('',(#245,#246),#261,.F.);
#277=ADVANCED_FACE('',(#247),#262,.F.);
#278=ADVANCED_FACE('',(#248),#263,.F.);
#279=ADVANCED_FACE('',(#249),#264,.T.);
#280=ADVANCED_FACE('',(#250),#265,.T.);
#281=ADVANCED_FACE('',(#251),#266,.F.);
#282=CLOSED_SHELL('',(#267,#268,#269,#270,#271,#272,#273,#274,#275,#276,
#277,#278,#279,#280,#281));
#283=STYLED_ITEM('',(#284),#291);
#284=PRESENTATION_STYLE_ASSIGNMENT((#285));
#285=SURFACE_STYLE_USAGE(.BOTH.,#286);
#286=SURFACE_SIDE_STYLE('',(#287));
#287=SURFACE_STYLE_FILL_AREA(#288);
#288=FILL_AREA_STYLE('',(#289));
#289=FILL_AREA_STYLE_COLOUR('',#290);
#290=COLOUR_RGB('',0.615686274509804,0.811764705882353,0.929411764705882);
#291=MANIFOLD_SOLID_BREP('Part 1',#282);
#292=SHAPE_DEFINITION_REPRESENTATION(#460,#293);
#293=SHAPE_REPRESENTATION('Part 1',(#294),#455);
#294=AXIS2_PLACEMENT_3D('',#378,#310,#311);
#295=AXIS2_PLACEMENT_3D('',#379,#312,#313);
#296=AXIS2_PLACEMENT_3D('',#388,#318,#319);
#297=AXIS2_PLACEMENT_3D('',#394,#323,#324);
#298=AXIS2_PLACEMENT_3D('',#400,#328,#329);
#299=AXIS2_PLACEMENT_3D('',#411,#336,#337);
#300=AXIS2_PLACEMENT_3D('',#412,#338,#339);
#301=AXIS2_PLACEMENT_3D('',#421,#344,#345);
#302=AXIS2_PLACEMENT_3D('',#427,#349,#350);
#303=AXIS2_PLACEMENT_3D('',#441,#358,#359);
#304=AXIS2_PLACEMENT_3D('',#444,#362,#363);
#305=AXIS2_PLACEMENT_3D('',#445,#364,#365);
#306=AXIS2_PLACEMENT_3D('',#446,#366,#367);
#307=AXIS2_PLACEMENT_3D('',#449,#370,#371);
#308=AXIS2_PLACEMENT_3D('',#451,#373,#374);
#309=AXIS2_PLACEMENT_3D('',#453,#376,#377);
#310=DIRECTION('',(0.,0.,1.));
#311=DIRECTION('',(1.,0.,0.));
#312=DIRECTION('',(0.,-1.,0.));
#313=DIRECTION('',(0.,0.,-1.));
#314=DIRECTION('',(0.,0.,1.));
#315=DIRECTION('',(1.,0.,0.));
#316=DIRECTION('',(0.,0.,1.));
#317=DIRECTION('',(1.,0.,0.));
#318=DIRECTION('',(-1.,2.01911594408116E-16,0.));
#319=DIRECTION('',(-2.01911594408116E-16,-1.,0.));
#320=DIRECTION('',(-2.01911594408116E-16,-1.,0.));
#321=DIRECTION('',(0.,0.,1.));
#322=DIRECTION('',(-2.01911594408116E-16,-1.,0.));
#323=DIRECTION('',(0.,-1.,0.));
#324=DIRECTION('',(0.,0.,-1.));
#325=DIRECTION('',(1.,0.,0.));
#326=DIRECTION('',(0.,0.,1.));
#327=DIRECTION('',(1.,0.,0.));
#328=DIRECTION('',(-1.,2.01911594408116E-16,0.));
#329=DIRECTION('',(-2.01911594408116E-16,-1.,0.));
#330=DIRECTION('',(2.01911594408116E-16,1.,4.40025866000866E-30));
#331=DIRECTION('',(9.34988263370572E-46,4.63068139356433E-30,1.));
#332=DIRECTION('',(2.01911594408116E-16,1.,4.40025866000866E-30));
#333=DIRECTION('',(9.34988263370572E-46,4.63068139356433E-30,1.));
#334=DIRECTION('',(-2.01911594408116E-16,-1.,0.));
#335=DIRECTION('',(-2.01911594408116E-16,-1.,0.));
#336=DIRECTION('',(0.,0.,-1.));
#337=DIRECTION('',(1.,0.,0.));
#338=DIRECTION('',(1.,-2.36290058054714E-16,0.));
#339=DIRECTION('',(2.36290058054714E-16,1.,0.));
#340=DIRECTION('',(-2.36290058054714E-16,-1.,0.));
#341=DIRECTION('',(0.,0.,-1.));
#342=DIRECTION('',(-2.36290058054714E-16,-1.,0.));
#343=DIRECTION('',(0.,0.,-1.));
#344=DIRECTION('',(0.,1.,0.));
#345=DIRECTION('',(0.,0.,1.));
#346=DIRECTION('',(1.,0.,0.));
#347=DIRECTION('',(1.,0.,0.));
#348=DIRECTION('',(0.,0.,-1.));
#349=DIRECTION('',(1.,-1.77217543541035E-16,0.));
#350=DIRECTION('',(1.77217543541035E-16,1.,0.));
#351=DIRECTION('',(-1.77217543541035E-16,-1.,-4.32601330112648E-30));
#352=DIRECTION('',(-8.20637981488648E-46,-4.63068139356433E-30,-1.));
#353=DIRECTION('',(-1.77217543541035E-16,-1.,-4.32601330112648E-30));
#354=DIRECTION('',(-8.20637981488648E-46,-4.63068139356433E-30,-1.));
#355=DIRECTION('',(-1.77217543541035E-16,-1.,0.));
#356=DIRECTION('',(-1.77217543541035E-16,-1.,0.));
#357=DIRECTION('',(0.,0.,-1.));
#358=DIRECTION('',(0.,1.,0.));
#359=DIRECTION('',(0.,0.,1.));
#360=DIRECTION('',(1.,0.,0.));
#361=DIRECTION('',(1.,0.,0.));
#362=DIRECTION('',(0.,0.,-1.));
#363=DIRECTION('',(1.,0.,0.));
#364=DIRECTION('',(0.,0.,-1.));
#365=DIRECTION('',(1.,0.,0.));
#366=DIRECTION('',(-3.006609133585E-15,-3.7931894160845E-30,1.));
#367=DIRECTION('',(1.,0.,3.006609133585E-15));
#368=DIRECTION('',(1.,1.33470303990578E-15,3.006609133585E-15));
#369=DIRECTION('',(1.,1.33470303990578E-15,3.006609133585E-15));
#370=DIRECTION('',(1.33470303990578E-15,-1.,4.63068139356433E-30));
#371=DIRECTION('',(1.,1.33470303990578E-15,0.));
#372=DIRECTION('',(1.,1.33470303990578E-15,3.006609133585E-15));
#373=DIRECTION('',(-3.006609133585E-15,-3.7931894160845E-30,1.));
#374=DIRECTION('',(1.,0.,3.006609133585E-15));
#375=DIRECTION('',(1.,1.33470303990578E-15,3.006609133585E-15));
#376=DIRECTION('',(1.33470303990578E-15,-1.,4.63068139356433E-30));
#377=DIRECTION('',(1.,1.33470303990578E-15,0.));
#378=CARTESIAN_POINT('',(0.,0.,0.));
#379=CARTESIAN_POINT('',(0.0672705,0.001922001,-0.00305));
#380=CARTESIAN_POINT('',(0.01808,0.001922001,-0.00305));
#381=CARTESIAN_POINT('',(0.01808,0.001922001,-0.00305));
#382=CARTESIAN_POINT('',(0.01808,0.001922001,0.00995));
#383=CARTESIAN_POINT('',(0.0672705,0.001922001,0.00995));
#384=CARTESIAN_POINT('',(0.116461,0.001922001,0.00995));
#385=CARTESIAN_POINT('',(0.116461,0.001922001,-0.00305));
#386=CARTESIAN_POINT('',(0.116461,0.001922001,-0.00305));
#387=CARTESIAN_POINT('',(0.0672705,0.001922001,-0.00305));
#388=CARTESIAN_POINT('',(0.116461,-0.0668099995,-0.00305));
#389=CARTESIAN_POINT('',(0.116461,-0.0668099995,0.00995));
#390=CARTESIAN_POINT('',(0.116461,-0.135542,0.00995));
#391=CARTESIAN_POINT('',(0.116461,-0.135542,-0.00305));
#392=CARTESIAN_POINT('',(0.116461,-0.135542,-0.00305));
#393=CARTESIAN_POINT('',(0.116461,-0.0668099995,-0.00305));
#394=CARTESIAN_POINT('',(0.0672705,-0.135542,-0.00305));
#395=CARTESIAN_POINT('',(0.0672705,-0.135542,0.00995));
#396=CARTESIAN_POINT('',(0.01808,-0.135542,0.00995));
#397=CARTESIAN_POINT('',(0.01808,-0.135542,-0.00305));
#398=CARTESIAN_POINT('',(0.01808,-0.135542,-0.00305));
#399=CARTESIAN_POINT('',(0.0672705,-0.135542,-0.00305));
#400=CARTESIAN_POINT('',(0.01808,-0.0668099995,-0.00305));
#401=CARTESIAN_POINT('',(0.01808,-0.0668099995,0.00639740149118002));
#402=CARTESIAN_POINT('',(0.01808,-0.0242790197953581,0.00639740149118002));
#403=CARTESIAN_POINT('',(0.01808,-0.0132790197953581,0.00639740149118002));
#404=CARTESIAN_POINT('',(0.01808,-0.0242790197953581,-0.00305));
#405=CARTESIAN_POINT('',(0.01808,-0.0242790197953581,0.00239740149117999));
#406=CARTESIAN_POINT('',(0.01808,-0.0668099995,0.00239740149118002));
#407=CARTESIAN_POINT('',(0.01808,-0.0132790197953581,0.00239740149118002));
#408=CARTESIAN_POINT('',(0.01808,-0.0132790197953581,-0.00305));
#409=CARTESIAN_POINT('',(0.01808,-0.0668099995,0.00995));
#410=CARTESIAN_POINT('',(0.01808,-0.0668099995,-0.00305));
#411=CARTESIAN_POINT('',(0.0672705,-0.0668099995,-0.00305));
#412=CARTESIAN_POINT('',(0.106461,-0.0668099995,0.00995));
#413=CARTESIAN_POINT('',(0.106461,-0.0668099995,-5.E-5));
#414=CARTESIAN_POINT('',(0.106461,-0.008077999,-5.E-5));
#415=CARTESIAN_POINT('',(0.106461,-0.125542,-5.E-5));
#416=CARTESIAN_POINT('',(0.106461,-0.125542,0.00995));
#417=CARTESIAN_POINT('',(0.106461,-0.125542,0.00995));
#418=CARTESIAN_POINT('',(0.106461,-0.0668099995,0.00995));
#419=CARTESIAN_POINT('',(0.106461,-0.008077999,0.00995));
#420=CARTESIAN_POINT('',(0.106461,-0.008077999,0.00995));
#421=CARTESIAN_POINT('',(0.0672705,-0.008077999,0.00995));
#422=CARTESIAN_POINT('',(0.0672705,-0.008077999,-5.E-5));
#423=CARTESIAN_POINT('',(0.02808,-0.008077999,-5.E-5));
#424=CARTESIAN_POINT('',(0.0672705,-0.008077999,0.00995));
#425=CARTESIAN_POINT('',(0.02808,-0.008077999,0.00995));
#426=CARTESIAN_POINT('',(0.02808,-0.008077999,0.00995));
#427=CARTESIAN_POINT('',(0.02808,-0.0668099995,0.00995));
#428=CARTESIAN_POINT('',(0.02808,-0.0668099995,0.00639740149118005));
#429=CARTESIAN_POINT('',(0.02808,-0.0132790197953581,0.00639740149118005));
#430=CARTESIAN_POINT('',(0.02808,-0.0242790197953581,0.00639740149118006));
#431=CARTESIAN_POINT('',(0.02808,-0.0132790197953581,0.00995));
#432=CARTESIAN_POINT('',(0.02808,-0.0132790197953581,0.00239740149118005));
#433=CARTESIAN_POINT('',(0.02808,-0.0668099995,0.00239740149118005));
#434=CARTESIAN_POINT('',(0.02808,-0.0242790197953581,0.00239740149118005));
#435=CARTESIAN_POINT('',(0.02808,-0.0242790197953581,0.00995));
#436=CARTESIAN_POINT('',(0.02808,-0.0668099995,-5.E-5));
#437=CARTESIAN_POINT('',(0.02808,-0.125542,-5.E-5));
#438=CARTESIAN_POINT('',(0.02808,-0.0668099995,0.00995));
#439=CARTESIAN_POINT('',(0.02808,-0.125542,0.00995));
#440=CARTESIAN_POINT('',(0.02808,-0.125542,0.00995));
#441=CARTESIAN_POINT('',(0.0672705,-0.125542,0.00995));
#442=CARTESIAN_POINT('',(0.0672705,-0.125542,-5.E-5));
#443=CARTESIAN_POINT('',(0.0672705,-0.125542,0.00995));
#444=CARTESIAN_POINT('',(0.0672705,-0.0668099995,0.00995));
#445=CARTESIAN_POINT('',(0.0672705,-0.0668099995,-5.E-5));
#446=CARTESIAN_POINT('',(0.0082,-0.0187790197953582,0.00639740149117999));
#447=CARTESIAN_POINT('',(0.0082,-0.0132790197953581,0.00639740149117999));
#448=CARTESIAN_POINT('',(0.0082,-0.0242790197953581,0.00639740149117999));
#449=CARTESIAN_POINT('',(0.0082,-0.0132790197953581,0.00439740149117999));
#450=CARTESIAN_POINT('',(0.0082,-0.0132790197953581,0.00239740149117999));
#451=CARTESIAN_POINT('',(0.0082,-0.0187790197953582,0.00239740149117999));
#452=CARTESIAN_POINT('',(0.0082,-0.0242790197953581,0.00239740149117999));
#453=CARTESIAN_POINT('',(0.0082,-0.0242790197953581,0.00439740149117999));
#454=MECHANICAL_DESIGN_GEOMETRIC_PRESENTATION_REPRESENTATION('',(#283),
#455);
#455=(
GEOMETRIC_REPRESENTATION_CONTEXT(3)
GLOBAL_UNCERTAINTY_ASSIGNED_CONTEXT((#456))
GLOBAL_UNIT_ASSIGNED_CONTEXT((#459,#458,#457))
REPRESENTATION_CONTEXT('Part 1','TOP_LEVEL_ASSEMBLY_PART')
);
#456=UNCERTAINTY_MEASURE_WITH_UNIT(LENGTH_MEASURE(1.E-8),#459,
'DISTANCE_ACCURACY_VALUE','Maximum Tolerance applied to model');
#457=(
NAMED_UNIT(*)
SI_UNIT($,.STERADIAN.)
SOLID_ANGLE_UNIT()
);
#458=(
NAMED_UNIT(*)
PLANE_ANGLE_UNIT()
SI_UNIT($,.RADIAN.)
);
#459=(
LENGTH_UNIT()
NAMED_UNIT(*)
SI_UNIT($,.METRE.)
);
#460=PRODUCT_DEFINITION_SHAPE('','',#461);
#461=PRODUCT_DEFINITION('','',#463,#462);
#462=PRODUCT_DEFINITION_CONTEXT('',#469,'design');
#463=PRODUCT_DEFINITION_FORMATION_WITH_SPECIFIED_SOURCE('','',#465,
 .NOT_KNOWN.);
#464=PRODUCT_RELATED_PRODUCT_CATEGORY('','',(#465));
#465=PRODUCT('Part 1','Part 1','Part 1',(#467));
#466=PRODUCT_CATEGORY('','');
#467=PRODUCT_CONTEXT('',#469,'mechanical');
#468=APPLICATION_PROTOCOL_DEFINITION('international standard',
'ap242_managed_model_based_3d_engineering',2020,#469);
#469=APPLICATION_CONTEXT('managed model based 3d engineering');
ENDSEC;
END-ISO-10303-21;
